<svg xmlns="http://www.w3.org/2000/svg" version="1.1" xmlns:xlink="http://www.w3.org/1999/xlink" xmlns:svgjs="http://svgjs.dev/svgjs" width="1500" height="1500" viewBox="0 0 1500 1500"><rect width="1500" height="1500" fill="#ffffff"></rect><g transform="matrix(0.6666666666666666,0,0,0.6666666666666666,250.00007343750008,187.66666666666674)"><svg viewBox="0 0 320 360" data-background-color="#f5ff00" preserveAspectRatio="xMidYMid meet" height="1687" width="1500" xmlns="http://www.w3.org/2000/svg" xmlns:xlink="http://www.w3.org/1999/xlink"><g id="tight-bounds" transform="matrix(1,0,0,1,0.000023499999997511622,0)"><svg viewBox="0 0 320 360" height="360" width="320"><g><svg></svg></g><g><svg viewBox="0 0 320 360" height="360" width="320"><g><path transform="translate(-74.99272,-51.79039) scale(4.65793,4.65793)" d="M20.6 59.9l0.8 1-0.4-1.3c-0.1-0.6-0.8 0.1-0.4 0.3M21.5 59.3c0.3 0.5 0.6 1 0.6 1.5 0 0.7 0.6 1 1.1 1.2-0.7-0.8-1.1-3-1.7-2.7M59.9 16.9c1.7 0 3.3-0.2 5.1 0.2 4.4 1.1 8.1 3.3 10.6 6.4l7 11.2c0.3 2.8 0.9 5.9 0.8 9.3 0.7 0 0.6-1 1.4-1.2-0.8 2-1.2 4.5-1.4 7.4-0.5-1.6 0-4 0.1-5.3-0.7 1.1-1.1 0.3-1.1-0.2 0.1-0.8-0.3-0.7-0.6-1-1.1-1-1.8-2.1-2.6-3.8 0.5-1.3 0.6-3.2-1-4.2-0.5-0.3-1.1-0.8-1.4-1.6-0.4-1.1-1.1-2.4-0.9-4.1 0.1-0.5-1.5 1.1-2.4 0.4-3.9-2.7-7.8-5.8-12.5-8.4-2.5 0-4.3-0.9-5.2-2-0.8-1-0.2-2.3 1-2.4 0.7 0 1.5-0.2 2.1 0.2 0.1-0.4 0.5-0.9 1-0.9M50 14.6l0.2 0.1c1 0.2 1.5 1.6 2.6 1.1 0 0.7 0.1 1.4-0.1 1.9-0.3 0.8-1.2 0.8-1.9 0.8-6.7-0.4-10.6 2.4-14.7 4.8-1.1 0.7-2.3 1.2-3.2 2.1-4.3 4-9 7.7-10.1 15.1l-0.9 8.2c-0.1 0.9-1.1 1.8-0.9 2.9l0.7 4.9c-0.7-0.7-1.1 0.2-0.9 0.6 0.1 0.3 0.5 1.3 1.1 0.4 0.8 1.5 1.6 4.4 2.7 5.7 3.4 4 7.8 7.6 11.4 11.2 0.9-0.2 1.6-0.2 1.8-0.8 0.3 0.6-0.3 1.2-0.8 1.3 1.6 1 3.4 1.9 5.8 2.1 3.1 0.2 6 0.7 8.7 1.4 1.4-0.4 2.8-0.6 4.3-0.7 0.5 0 0.8-0.8 1.4-1l0.1-1c0.6 0.9 0.5-0.3 0.1-0.9 0.7 0.6 0.9 1.1 1.2 1.5 0-0.3 0.8-1.4 0.8-0.1l0.2-1.3c0.3-0.2 0.4 1.1 0.7 0.2 0.3-0.9 0.9-0.2 1.5-0.5-0.2 0.4-0.1 1.2 0.6 0.7l0.8-0.7c0.5 1.2 1.3 0.7 1.7 0.5 4.4-2.8 8.8-6.1 13-9.4l-0.1 1.3 0.5-1.6c0.5 0.5 0.9 0.1 1.1-0.2 0.6-1 1.4-2 2.7-2.9-1.6 4.3-3.5 7.7-5.9 10.5l-1 1.2c0 0.7-0.2 1.6-1 1.7-0.4 0.1-1.2-0.2-1.8 0.4-0.3 0.4 0.7 1.2-0.1 0.6-0.7-0.5-1.4 0-2.2 0.2-0.6 0.2 0.4 0.8 0.6 1.2 0.2 0.4 0.4 0.8 0.3 1.3l-1.1-1.2c-1.3 0.7-2.1 2-3.2 3-0.5 0.4-0.3 1.1-0.3 1.7-0.7 0-1.5-0.2-1.9 0.2-0.3 0.4-0.2 1-0.2 1.6-1-0.1-1.1-1.6-2-1.3-0.9 0.2-1.9 0.3-2.7 0.8 0.6 1.2-1 0.5-0.8 0.7-1.5-0.9-2.8-1.6-4.4-1-3.4-1.1-7.6-0.6-10.7-0.2 0-0.5 0.1-1-0.1-1.1-0.2 0.5-0.8 0.3-0.7 0.3-1.9-1.3-3.8-2.1-5.8-3.2-1.8 0.2-3.5-0.7-4-1.2-1.4-1.3-3-0.6-4.3-0.9-2.8-0.7-3.8-3.6-4.1-5.6-0.2-1-1-1.4-1.3-1.3-1.3-4.2-3.3-8-4.9-11.9-0.4-1-0.3-2-0.3-3.1 0.5 0.2 1 0.1 0.9-0.6-0.5-3.3-1.7-5.8-3-8.2 0.7-3.4 0.8-7.4 2.4-10.4 1.4-2.7 4-4.1 5.8-6.4 0.6-0.8 0.6-1.9 1.2-2.6 2-2 4-4.1 6.2-5.9 1-0.8 2.2 0 3.7-0.3 0.5-1.8 2.5-3.4 4.4-2.9 0.8 0.2 2.4-1.9 2.9-2.1 0.8-0.3 0.4 0.8 0.4 1.5 1.9-1.5 4.5-2.3 6.9-3.2" fill="#000000" fill-rule="nonzero" stroke="none" stroke-width="1" stroke-linecap="butt" stroke-linejoin="miter" stroke-miterlimit="10" stroke-dasharray="" stroke-dashoffset="0" font-family="none" font-weight="none" font-size="none" text-anchor="none" style="mix-blend-mode: normal" data-fill-palette-color="tertiary"></path></g><g transform="matrix(1,0,0,1,92.35029547620671,90)"><svg viewBox="0 0 135.29940904758658 180" height="180" width="135.29940904758658"><g><svg viewBox="0 0 135.29940904758658 180" height="180" width="135.29940904758658"><g><svg viewBox="0 0 192 255.43348816730452" height="180" width="135.29940904758658"><g transform="matrix(1,0,0,1,0,152.14617268352072)"><svg viewBox="0 0 192 103.2873154837838" height="103.2873154837838" width="192"><g id="textblocktransform"><svg viewBox="0 0 192 103.2873154837838" height="103.2873154837838" width="192" id="textblock"><g><svg viewBox="0 0 192 64.43835616438356" height="64.43835616438356" width="192"><g transform="matrix(1,0,0,1,0,0)"><svg width="192" viewBox="1.65 -36.15 109.49 36.75" height="64.43835616438356" data-palette-color="#000000"><path d="M10.1 0.6Q5.85 0.6 3.75-1.63 1.65-3.85 1.65-7.1L1.65-7.1Q1.65-7.7 1.68-7.93 1.7-8.15 1.7-8.2L1.7-8.2 6-8.2 6-7.7Q6-5.35 7.2-4.17 8.4-3 10.3-3L10.3-3Q12-3 13.13-4.03 14.25-5.05 14.25-6.9L14.25-6.9Q14.25-8.3 13.55-9.2 12.85-10.1 11.85-10.63 10.85-11.15 9.05-11.8L9.05-11.8Q6.85-12.55 5.5-13.3 4.15-14.05 3.2-15.53 2.25-17 2.25-19.4L2.25-19.4Q2.25-22.85 4.48-24.88 6.7-26.9 10.45-26.9L10.45-26.9Q14-26.9 16-24.83 18-22.75 18-19.7L18-19.7 17.95-18.75 13.7-18.75 13.7-19.2Q13.7-20.95 12.85-22.13 12-23.3 10.05-23.3L10.05-23.3Q8.1-23.3 7.3-22.2 6.5-21.1 6.5-19.7L6.5-19.7Q6.5-18 7.68-17.18 8.85-16.35 11.3-15.55L11.3-15.55Q13.55-14.75 15-13.98 16.45-13.2 17.48-11.65 18.5-10.1 18.5-7.5L18.5-7.5Q18.5-3.45 16.23-1.43 13.95 0.6 10.1 0.6L10.1 0.6ZM23.5 0L23.5-36.15 27.6-36.15 27.6-23.55 27.9-23.55Q29.8-26.9 33.8-26.9L33.8-26.9Q36.95-26.9 38.62-25.03 40.3-23.15 40.3-18.95L40.3-18.95 40.3 0 36.2 0 36.2-18.65Q36.2-21.2 35.25-22.23 34.3-23.25 32.5-23.25L32.5-23.25Q30.45-23.25 29.02-21.3 27.6-19.35 27.6-16.05L27.6-16.05 27.6 0 23.5 0ZM54.7 0.6Q51.59 0.6 49.55-0.98 47.5-2.55 46.4-6.45 45.3-10.35 45.3-17.15L45.3-17.15Q45.3-23.95 46.4-27.85 47.5-31.75 49.55-33.33 51.59-34.9 54.7-34.9L54.7-34.9Q57.8-34.9 59.84-33.3 61.9-31.7 63-27.83 64.09-23.95 64.09-17.15L64.09-17.15Q64.09-10.35 63-6.48 61.9-2.6 59.84-1 57.8 0.6 54.7 0.6L54.7 0.6ZM54.7-3.05Q57.59-3.05 58.75-6.28 59.9-9.5 59.9-15.4L59.9-15.4 59.9-18.9Q59.9-24.8 58.75-28.03 57.59-31.25 54.7-31.25L54.7-31.25Q51.8-31.25 50.65-28.03 49.5-24.8 49.5-18.9L49.5-18.9 49.5-15.4Q49.5-9.5 50.65-6.28 51.8-3.05 54.7-3.05L54.7-3.05ZM80.34 0L80.34-8.45 67.09-8.45 67.09-12.15Q69.79-17.1 72.14-23.08 74.49-29.05 75.99-34.9L75.99-34.9 80.14-34.9Q79.29-30.65 77.52-25.95 75.74-21.25 73.89-17.48 72.04-13.7 70.94-12.1L70.94-12.1 80.34-12.1 80.34-22.9Q81.04-24.55 81.44-25.98 81.84-27.4 82.44-29.8L82.44-29.8 84.44-29.8 84.44-12.1 87.94-12.1 87.94-8.45 84.44-8.45 84.44 0 80.34 0ZM91.39 0L91.39-3.65 99.54-3.65 99.54-28.05 91.34-28.05 91.34-30.65Q93.54-30.9 96.64-31.93 99.74-32.95 102.04-34.3L102.04-34.3 103.64-34.3 103.64-3.65 111.14-3.65 111.14 0 91.39 0Z" opacity="1" transform="matrix(1,0,0,1,0,0)" fill="#000000" class="wordmark-text-0" data-fill-palette-color="primary" id="text-0"></path></svg></g></svg></g><g transform="matrix(1,0,0,1,0,73.84145884931507)"><svg viewBox="0 0 192 29.445856634468733" height="29.445856634468733" width="192"><g transform="matrix(1,0,0,1,0,0)"><svg width="192" viewBox="3.35 -36.15 295.02 45.25" height="29.445856634468733" data-palette-color="#000000"><path d="M3.35 0L3.35-26.3 6.7-26.3 7.2-22.75 7.55-22.75Q10.45-26.9 16.4-26.9L16.4-26.9Q20.35-26.9 22.48-24.78 24.6-22.65 24.6-17.95L24.6-17.95 24.6 0 20.2 0 20.2-17.65Q20.2-20.8 18.8-22.03 17.4-23.25 14.75-23.25L14.75-23.25Q12.85-23.25 11.25-22.33 9.65-21.4 8.7-19.65 7.75-17.9 7.75-15.55L7.75-15.55 7.75 0 3.35 0ZM42.3 0.6Q35.95 0.6 32.85-2.75 29.75-6.1 29.75-13.15L29.75-13.15Q29.75-20.2 32.85-23.55 35.95-26.9 42.3-26.9L42.3-26.9Q48-26.9 50.82-23.88 53.65-20.85 53.65-14.15L53.65-14.15 53.65-11.95 34.3-11.95Q34.55-7.4 36.47-5.23 38.4-3.05 42.3-3.05L42.3-3.05Q45.45-3.05 47.4-4.5 49.35-5.95 49.35-8.95L49.35-8.95 53.65-8.95Q53.65-4.35 50.47-1.88 47.3 0.6 42.3 0.6L42.3 0.6ZM34.4-15.6L49.05-15.6Q49.05-23.25 42.3-23.25L42.3-23.25Q38.55-23.25 36.67-21.45 34.8-19.65 34.4-15.6L34.4-15.6ZM65.89 0L56.24-26.3 60.89-26.3 65.55-13.15Q66.55-10.35 68.14-4.9L68.14-4.9 68.39-4.9Q69.84-10.05 70.94-13.15L70.94-13.15 75.55-26.3 79.94-26.3 70.3 0 65.89 0ZM95.09 0.6Q88.74 0.6 85.64-2.75 82.54-6.1 82.54-13.15L82.54-13.15Q82.54-20.2 85.64-23.55 88.74-26.9 95.09-26.9L95.09-26.9Q100.79-26.9 103.62-23.88 106.44-20.85 106.44-14.15L106.44-14.15 106.44-11.95 87.09-11.95Q87.34-7.4 89.27-5.23 91.19-3.05 95.09-3.05L95.09-3.05Q98.24-3.05 100.19-4.5 102.14-5.95 102.14-8.95L102.14-8.95 106.44-8.95Q106.44-4.35 103.27-1.88 100.09 0.6 95.09 0.6L95.09 0.6ZM87.19-15.6L101.84-15.6Q101.84-23.25 95.09-23.25L95.09-23.25Q91.34-23.25 89.47-21.45 87.59-19.65 87.19-15.6L87.19-15.6ZM111.74 0L111.74-26.3 115.09-26.3 115.59-22.35 115.89-22.35Q116.64-24.3 118.14-25.6 119.64-26.9 122.09-26.9L122.09-26.9Q123.44-26.9 124.44-26.5L124.44-26.5 124.44-22.25 122.59-22.25Q119.79-22.25 117.97-20.63 116.14-19 116.14-15.55L116.14-15.55 116.14 0 111.74 0ZM146.99 9.1Q144.09 9.1 141.96 7.63 139.84 6.15 139.84 2.75L139.84 2.75Q139.84-1.35 144.09-2.85L144.09-2.85Q142.88-3.5 142.11-4.53 141.34-5.55 141.34-6.9L141.34-6.9Q141.34-8.85 142.71-9.85 144.09-10.85 145.74-11.25L145.74-11.25Q144.09-12.45 143.13-14.2 142.19-15.95 142.19-18.05L142.19-18.05Q142.19-22.25 145.03-24.58 147.88-26.9 152.84-26.9L152.84-26.9Q155.59-26.9 157.84-26L157.84-26Q161.09-27.55 161.63-30.55L161.63-30.55 165.84-30.55Q165.84-28.2 164.46-26.5 163.09-24.8 160.74-24.25L160.74-24.25Q163.53-21.75 163.53-18.05L163.53-18.05Q163.53-13.85 160.66-11.53 157.78-9.2 152.84-9.2L152.84-9.2 148.63-9.2Q147.28-9.2 146.56-8.6 145.84-8 145.84-7.05L145.84-7.05Q145.84-6.1 146.56-5.5 147.28-4.9 148.63-4.9L148.63-4.9 159.19-4.9Q162.28-4.9 164.09-3.03 165.88-1.15 165.88 1.5L165.88 1.5Q165.88 3.4 165.03 5.15 164.19 6.9 162.31 8 160.44 9.1 157.59 9.1L157.59 9.1 146.99 9.1ZM152.88-12.6Q155.99-12.6 157.59-14.03 159.19-15.45 159.19-18.05L159.19-18.05Q159.19-20.65 157.59-22.08 155.99-23.5 152.88-23.5L152.88-23.5Q149.78-23.5 148.19-22.08 146.59-20.65 146.59-18.05L146.59-18.05Q146.59-15.45 148.19-14.03 149.78-12.6 152.88-12.6L152.88-12.6ZM147.38 5.55L157.69 5.55Q159.34 5.55 160.44 4.65 161.53 3.75 161.53 2.25L161.53 2.25Q161.53 0.75 160.66-0.13 159.78-1 158.34-1L158.34-1 147.38-1Q145.94-1 145.09-0.13 144.24 0.75 144.24 2.25L144.24 2.25Q144.24 3.75 145.09 4.65 145.94 5.55 147.38 5.55L147.38 5.55ZM170.08-31.4L170.08-36.15 174.43-36.15 174.43-31.4 170.08-31.4ZM170.08 0L170.08-26.3 174.48-26.3 174.48 0 170.08 0ZM188.13 0L178.48-26.3 183.13-26.3 187.78-13.15Q188.78-10.35 190.38-4.9L190.38-4.9 190.63-4.9Q192.08-10.05 193.18-13.15L193.18-13.15 197.78-26.3 202.18-26.3 192.53 0 188.13 0ZM217.33 0.6Q210.98 0.6 207.88-2.75 204.78-6.1 204.78-13.15L204.78-13.15Q204.78-20.2 207.88-23.55 210.98-26.9 217.33-26.9L217.33-26.9Q223.03-26.9 225.85-23.88 228.68-20.85 228.68-14.15L228.68-14.15 228.68-11.95 209.33-11.95Q209.58-7.4 211.5-5.23 213.43-3.05 217.33-3.05L217.33-3.05Q220.48-3.05 222.43-4.5 224.38-5.95 224.38-8.95L224.38-8.95 228.68-8.95Q228.68-4.35 225.5-1.88 222.33 0.6 217.33 0.6L217.33 0.6ZM209.43-15.6L224.08-15.6Q224.08-23.25 217.33-23.25L217.33-23.25Q213.58-23.25 211.7-21.45 209.83-19.65 209.43-15.6L209.43-15.6ZM255.92 0.6Q251.97 0.6 249.85-1.53 247.72-3.65 247.72-8.35L247.72-8.35 247.72-26.3 252.12-26.3 252.12-8.65Q252.12-5.5 253.52-4.28 254.92-3.05 257.57-3.05L257.57-3.05Q259.47-3.05 261.07-3.98 262.67-4.9 263.62-6.65 264.57-8.4 264.57-10.75L264.57-10.75 264.57-26.3 268.97-26.3 268.97 0 265.62 0 265.12-3.55 264.77-3.55Q261.87 0.6 255.92 0.6L255.92 0.6ZM275.67 8.65L275.67-26.3 278.97-26.3 279.52-22.75 279.82-22.75Q281.12-24.8 283.25-25.85 285.37-26.9 287.97-26.9L287.97-26.9Q292.97-26.9 295.67-23.55 298.37-20.2 298.37-13.15L298.37-13.15Q298.37-6.25 295.7-2.83 293.02 0.6 288.37 0.6L288.37 0.6Q285.57 0.6 283.62-0.25 281.67-1.1 280.37-3L280.37-3 280.07-3 280.07 8.65 275.67 8.65ZM286.87-3.05Q289.42-3.05 290.92-4 292.42-4.95 293.12-7.1 293.82-9.25 293.82-12.95L293.82-12.95 293.82-13.15Q293.82-16.9 293.12-19.1 292.42-21.3 290.9-22.28 289.37-23.25 286.87-23.25L286.87-23.25Q283.37-23.25 281.72-20.7 280.07-18.15 280.07-13.15L280.07-13.15 280.07-12.95Q280.07-8.05 281.7-5.55 283.32-3.05 286.87-3.05L286.87-3.05Z" opacity="1" transform="matrix(1,0,0,1,0,0)" fill="#000000" class="slogan-text-1" data-fill-palette-color="secondary" id="text-1"></path></svg></g></svg></g></svg></g></svg></g><g transform="matrix(1,0,0,1,42.85721645350206,0)"><svg viewBox="0 0 106.28556709299588 142.74306999858922" height="142.74306999858922" width="106.28556709299588"><g><svg xmlns="http://www.w3.org/2000/svg" data-name="Layer 1" viewBox="15.686825353636744 3.874040827931753 68.70059942525202 92.26590910620479" x="0" y="0" height="142.74306999858922" width="106.28556709299588" class="icon-icon-0" data-fill-palette-color="accent" id="icon-0"><g data-name="Shape 110" fill="#000000" data-fill-palette-color="accent"><path class="cls-1" d="M27.89 14.93c-1.23-1.26-2.58-2.67-2.6-4.43s2.3-3.37 3.52-2.1A128.44 128.44 0 0 1 47.54 33.55a198.74 198.74 0 0 1 34-29.44c1.33-0.91 3.13 1 2.81 2.53s-1.79 2.63-3.13 3.54A203 203 0 0 0 50.11 36a1.6 1.6 0 0 0-0.65 1.66Q61 61.1 74.52 83.55c2 3.34 4.14 7.15 3.15 10.93a2.13 2.13 0 0 1-1.15 1.59c-1 0.36-2-0.74-2.55-1.69A581.6 581.6 0 0 1 45.83 40.44 328.91 328.91 0 0 0 17.89 77.6c-0.54 0.84-2 0.21-2.2-0.77a3.83 3.83 0 0 1 1-2.74C25.19 61.58 33.76 49 43.8 37.7a1.35 1.35 0 0 0-0.14-1.49A97.69 97.69 0 0 0 27.89 14.93Z" fill="#000000" data-fill-palette-color="accent"></path></g></svg></g></svg></g><g></g></svg></g></svg></g></svg></g></svg></g><defs></defs></svg><rect width="320" height="360" fill="none" stroke="none" visibility="hidden"></rect></g></svg></g></svg>